<?xml version="1.0" encoding="utf-8"?>
<!-- Generator: Adobe Illustrator 21.0.0, SVG Export Plug-In . SVG Version: 6.00 Build 0)  -->
<svg version="1.1" id="Calque_1" xmlns="http://www.w3.org/2000/svg" xmlns:xlink="http://www.w3.org/1999/xlink" x="0px" y="0px"
	 viewBox="0 0 541.3 122.8" style="enable-background:new 0 0 541.3 122.8;" xml:space="preserve">
<style type="text/css">
	.st0{fill:#89C1D3;}
	.st1{fill:#DA428C;}
	.st2{fill:#EE7203;}
	.st3{fill:#E30613;}
	.st4{fill:#009FE3;}
	.st5{fill:#FFCC00;}
	.st6{fill:#A2C617;}
	.st7{fill:#4E8363;}
	.st8{fill:#505E6B;}
</style>
<title>fondationkorian</title>
<path class="st0" d="M74.4,90.1c-0.3-1.4-0.7-2.7-1.1-4c-1.4-3.7-4.4-7-8.5-6.6c-1.1,0.2-2.1,0.9-2.7,1.8c-4.2,6.5-7.1,13-10.4,19.9
	c-0.9,1.9-1.6,3.9-2.1,5.9c0,0-0.9,3.6-1.2,5.4c-0.6,3.3,0.6,8.9,1.5,10.1c0,0.3,0.3,0.3,0.6-0.9c1.4-5.9,3.7-11.5,6.8-16.6
	c1.8-3,4.2-5.3,5.9-8.3c1.2-1.5,1.5-3.3,2.7-4.4c0.9-0.6,1.2,0.6,1.5,1.5c0.9,4.8,0.3,9.2,1.2,13.9c0.6,2.2,1.4,4.4,2.4,6.5
	c1.5,2.7,2.7,5,4.8,7.1c0.6,0.6,1.2,1.5,2.1,1.5c0.2-0.2,0.3-0.4,0.3-0.6C77.8,120.1,76.6,99.9,74.4,90.1z"/>
<path class="st1" d="M105.7,31.7c-4.8,0.6-9.5,0.9-14.2,1.8c-2.1,0.6-3.8,0.9-5.6,2.1c-0.6,0.3-1.5,0.6-1.8,0.3
	c-0.2-0.7-0.1-1.5,0.3-2.1c3-4.7,6.5-8.6,10.1-13c2.9-3.7,4.8-8.1,5.6-12.8c0-0.3-0.1-0.7-0.3-0.9c-0.3-0.3-0.3,0-0.9,0.6
	c-4.2,3-7.1,6.2-11,9.5c-1.8,1.8-3.6,3.9-5.3,5.9c-1.2,1.8-2.4,3.3-3.6,5c-1.3,2.1-2.4,4.3-3.3,6.6c-1.4,3-1.6,6.3-0.6,9.4
	c0.6,1.2,1.8,2.4,3,2.4c6.2,0.9,11.3-4.2,17.5-5.3c2.4-0.6,4.2-1.8,6.2-2.4c3-0.6,5.6-2.1,8.6-3.6c0.9-0.6,1.5-1.2,2.4-1.8
	c1.7-1.4,3.2-3,4.4-4.8C113.4,29.4,109.8,31.1,105.7,31.7z"/>
<path class="st2" d="M76,0.3c0,0.1-0.4-0.4-0.6,0.3c-2.1,9.5-7.1,17.5-13,25.2c-0.8,1.1-1.5,2.3-2.1,3.5c-0.2,0.5-0.6,0.9-0.9,0.9
	c-0.7-0.3-1.2-1-1.2-1.8c-0.3-4.7,0-9.5-1.2-14.5c-0.9-3.2-2.3-6.2-4.1-8.9c-0.6-1.2-1.5-1.8-2.4-3c-0.7-0.8-1.5-1.5-2.4-2
	c-0.6,2.1,0.4,4.4,0.6,6.8c0.2,1.6,0.4,4.6,0.5,5.6c0.5,4.1,0.6,8.2,1,12.1c0.2,1.8,0.4,3.5,0.7,5.2c0.4,2,0.9,4,1.6,6
	c1.4,3.3,3.8,6.2,7.5,6.9c3.5,0.2,5.7-5.5,7.6-9.2c0.2-0.3,2.2-4.5,2.8-5.3C75.7,19.6,79.3,9.8,76,0.3z"/>
<path class="st3" d="M126,74.9c-9.2-1.8-17-6.3-24.6-12.3c-0.2-0.2-4.7-2.7-5-2.9c-0.5-0.4-0.6-0.3-0.7-0.7c-0.4-0.8,0.7-1,1.8-1.2
	c7.1-0.9,14.5,0.3,21.1-3.3c1.6-0.8,3.2-1.7,4.8-2.7c1.6-1,3-2.4,4.2-3.9c0-0.3-0.1-0.6-0.7-0.6c-3,0.3-6.1,0.9-9.1,1.2
	c-6.2,0.6-12.2,0.6-18.4,1.2c-2.5,0.4-5,0.9-7.5,1.6c-4.7,1.2-9.9,3.9-9.1,9.4c0.1,0.4,0.3,0.9,0.6,1.2c4.7,4.5,11,5.6,16.6,9.2
	c2.9,1.7,6,3.1,9.2,4.1c3.2,1,6.5,1.6,9.8,1.8c2.4,0.1,4.8-0.2,7.2-0.9c0.4-0.1,0.8-0.3,1.1-0.6C127.3,75.3,126.2,75,126,74.9z"/>
<path class="st4" d="M118.7,97.6c-0.4-0.4-0.7-0.8-1-1.3c-0.6-0.8-2.8-3.2-3.5-4c-1.7-1.8-3.2-3.7-4.9-5.5c-1.1-1.2-5.4-4.9-6-5.3
	c-3.3-2.7-6.9-5-10.8-6.6c-0.1,0-10.4-3.7-12.8,2.2c-0.6,1.5,0,3.3,0.6,4.8c1,2.3,2.1,4.5,3.1,6.7c0.7,1.6,4.3,9.9,4.9,13.2
	c0.8,2.7,2,5.2,3.6,7.4c0.7,1.3,1.5,2.6,2.4,3.9c1.1,1.4,2.3,2.7,3.6,3.9c0.4,0.5,1.4,1.1,1.5,0.9c0.3-0.4,0-0.8-0.3-1.8
	c-1.5-4.7-3.3-9.5-3.9-14.5c-0.3-3.8-0.9-7.1-1.5-11c-0.6-2.4-2.4-4.4-2.4-6.8c-0.3-0.9,1.2-0.3,1.8,0c0.7,0.5,2.2,1.5,3.6,2.4
	c1.2,0.8,5.9,4.6,6.5,5c0.3,0.3,4.6,4,5.8,4.8c3.2,2.3,6.9,3.8,10.9,4.4c0.3,0,0.8-0.2,0.8-0.5C120,98.8,119.4,98.1,118.7,97.6z"/>
<path class="st5" d="M47.7,42.9c0,0,0.1,0.1,0.1,0.1c-1.4-2.1-2.6-4.3-3.6-6.5c-3-7.1-5.3-14.5-9.8-20.8c-1.8-2.3-3.3-4.2-5.6-5
	c1.8,4.8,3.3,9.8,4.5,14.8c0,0.6,0.6,4.1,0.6,5.6c0.5,3.9,1.7,7.8,3.6,11.3c0.6,0.9,0.7,1.8,0,1.8c-6.5-2.4-11-8-17.2-11.9
	c-1.2-0.8-2.5-1.5-3.9-2.1c-3-0.9-5.9-2.7-9.2-1.8c0.9,1.2,1.9,2.3,3,3.3c1.3,1.7,2.8,3.2,4.4,4.5c8.6,7.8,18.6,18.6,31.2,16.5
	c0.8-0.1,1.5-0.4,2.1-1C50.2,49.2,49.4,45.7,47.7,42.9z"/>
<path class="st6" d="M37.7,59.2c-2.6-1.1-5.3-2.1-8-3.3c-1-0.5-4.3-2.1-5.6-2.6c-1.8-0.7-4-1.6-4.1-1.6c-2.7-0.8-5.5-1.3-8.3-1.5
	c-4.2,0-8.6-0.3-12.2,1.8c2.4,0.3,4.8,0.9,7.4,1.5c9.2,2.4,16.6,8,24.3,12.8c0.3,0.3,0.9,0.6,1.2,0.9c0,0.3,0,0.9-0.3,0.9
	c-5.3,1.2-10.1,0.6-15.4,1.2c-3.9,1-7.6,2.5-11,4.4c-2,1.2-3.8,2.7-5.3,4.4c-0.3,0.3-0.5,0.6-0.6,1c-0.1,0.2-0.1,0.8,0.8,0.6
	c3.6-0.8,6.8-1,10.7-1.9c6.8-1.2,13.1-0.7,19.9-1.8c1-0.2,1.8-0.4,2.7-0.6c3.5-0.8,6.7-2.3,9.5-4.4c1-0.9,1.8-2,2.4-3.3
	C47.5,62.8,41.6,60.2,37.7,59.2z"/>
<path class="st7" d="M49.3,81.6c-0.2-1.3-1.1-2.5-2.4-3c-2.7-1-6.9,1-8.4,1.8l-3.5,1.8C26.2,86.3,15.2,88.4,9.6,97
	c6.7-2.2,13.5-3.8,20.5-4.7c3.4-0.3,6.7-1.2,9.8-2.7c1.8-0.4,1.5,0.9,1.2,1.5c-2.4,4.4-5.3,7.7-8.3,11.9c-1.2,1.7-2.3,3.5-3.3,5.3
	c-1.1,2.5-1.9,5.1-2.4,7.7c-0.3,0.7-0.3,1.5,0,2.1c0.1,0.2,0.3,0.7,1.1-0.1c1.6-1.4,2.6-1.7,4.8-4.1s3.6-4.5,6-7.4
	c0.3-0.3,0.5-0.6,0.8-0.9C45.8,99.1,51.7,90.8,49.3,81.6z"/>
<path class="st8" d="M171.1,27v2.4h-16.2v10.8h14.4v2.4h-14.4V57H152V27H171.1z"/>
<path class="st8" d="M173.9,36c0.6-1.8,1.5-3.5,2.6-5c1.2-1.4,2.8-2.6,4.5-3.4c3.9-1.7,8.4-1.7,12.4,0c1.7,0.8,3.2,2,4.4,3.4
	c1.2,1.5,2.1,3.2,2.6,5c1.2,3.9,1.2,8,0,11.8c-0.5,1.8-1.4,3.5-2.6,5c-1.2,1.4-2.7,2.6-4.4,3.4c-3.9,1.7-8.4,1.7-12.4,0
	c-1.7-0.8-3.2-2-4.4-3.4c-1.2-1.5-2.1-3.2-2.6-5C172.7,44,172.7,39.9,173.9,36L173.9,36z M176.5,46.7c0.4,1.5,1.1,3,2,4.2
	c0.9,1.3,2.1,2.3,3.5,3c1.6,0.8,3.3,1.2,5.1,1.1c1.8,0.1,3.5-0.3,5.1-1.1c1.4-0.7,2.6-1.7,3.5-3c0.9-1.3,1.6-2.7,2-4.2
	c0.9-3.2,0.9-6.5,0-9.6c-0.4-1.5-1.1-2.9-2-4.2c-0.9-1.3-2.1-2.3-3.5-3c-1.6-0.8-3.3-1.2-5.1-1.1c-1.8,0-3.5,0.3-5.1,1.1
	c-1.4,0.7-2.6,1.7-3.5,3c-0.9,1.3-1.6,2.7-2,4.2C175.6,40.3,175.6,43.6,176.5,46.7L176.5,46.7z"/>
<path class="st8" d="M208.9,27l17.5,25.4h0.1V27h2.9v30h-3.2l-17.5-25.4h-0.1V57h-2.9V27H208.9z"/>
<path class="st8" d="M245.6,27c4.6,0.1,8,1.4,10.3,3.8c2.3,2.5,3.5,6.2,3.5,11.2c0,5-1.2,8.7-3.5,11.2c-2.3,2.5-5.7,3.7-10.3,3.8
	h-10.4V27H245.6z M244.2,54.5c1.9,0,3.8-0.2,5.6-0.7c1.4-0.4,2.8-1.2,3.9-2.2c1.1-1.1,1.8-2.4,2.2-3.9c0.5-1.9,0.8-3.8,0.7-5.8
	c0-1.9-0.2-3.9-0.7-5.8c-0.8-3-3.1-5.3-6.1-6.1c-1.8-0.5-3.7-0.7-5.6-0.7h-6.1v25.1L244.2,54.5z"/>
<path class="st8" d="M276,27l11.8,30h-3.1l-3.7-9.3h-13.6l-3.6,9.3h-3l12-30H276z M280.1,45.2l-5.8-15.4l-6,15.4H280.1z"/>
<path class="st8" d="M308.2,27v2.4h-10.4V57h-2.9V29.4h-10.4V27H308.2z"/>
<path class="st8" d="M314.1,27v30h-2.9V27H314.1z"/>
<path class="st8" d="M319.6,36c0.6-1.8,1.5-3.5,2.6-5c1.2-1.5,2.7-2.6,4.4-3.4c3.9-1.7,8.4-1.7,12.4,0c1.7,0.8,3.2,2,4.4,3.4
	c1.2,1.5,2.1,3.2,2.6,5c1.2,3.9,1.2,8,0,11.8c-0.5,1.8-1.4,3.5-2.6,5c-1.2,1.4-2.7,2.6-4.4,3.4c-3.9,1.7-8.4,1.7-12.4,0
	c-1.7-0.8-3.2-2-4.4-3.4c-1.2-1.5-2.1-3.2-2.6-5C318.4,44,318.4,39.9,319.6,36z M322.2,46.7c0.4,1.5,1.1,3,2,4.2
	c0.9,1.3,2.1,2.3,3.5,3c1.6,0.8,3.3,1.2,5.1,1.1c1.8,0.1,3.5-0.3,5.1-1.1c1.4-0.7,2.6-1.7,3.5-3c0.9-1.3,1.6-2.7,2-4.2
	c0.9-3.2,0.9-6.5,0-9.6c-0.4-1.5-1.1-2.9-2-4.2c-0.9-1.3-2.1-2.3-3.5-3c-1.6-0.8-3.3-1.2-5.1-1.1c-1.8,0-3.5,0.3-5.1,1.1
	c-1.4,0.7-2.6,1.7-3.5,3c-0.9,1.3-1.6,2.7-2,4.2C321.4,40.3,321.4,43.6,322.2,46.7L322.2,46.7z"/>
<path class="st8" d="M354.6,27l17.5,25.4h0.1V27h2.9v30h-3.2l-17.5-25.4h-0.1V57h-2.9V27H354.6z"/>
<path class="st8" d="M395.5,27v16.1L413,27h3.9l-13.4,12.4l14,17.6h-3.7l-12.5-15.6l-5.8,5.3V57h-2.9V27H395.5z"/>
<path class="st8" d="M419.2,36c0.6-1.8,1.5-3.5,2.6-5c1.2-1.5,2.7-2.6,4.4-3.4c3.9-1.7,8.4-1.7,12.4,0c1.7,0.8,3.2,2,4.4,3.4
	c1.2,1.5,2.1,3.2,2.6,5c1.2,3.9,1.2,8,0,11.8c-0.5,1.8-1.4,3.5-2.6,5c-1.2,1.4-2.7,2.6-4.4,3.4c-3.9,1.7-8.4,1.7-12.4,0
	c-1.7-0.8-3.2-2-4.4-3.4c-1.2-1.5-2.1-3.2-2.6-5C418,44,418,39.9,419.2,36z M421.8,46.7c0.4,1.5,1.1,3,2,4.2c0.9,1.3,2.1,2.3,3.5,3
	c1.6,0.8,3.3,1.2,5.1,1.1c1.8,0.1,3.5-0.3,5.1-1.1c1.4-0.7,2.6-1.7,3.5-3c0.9-1.3,1.6-2.7,2-4.2c0.9-3.2,0.9-6.5,0-9.6
	c-0.4-1.5-1.1-2.9-2-4.2c-0.9-1.3-2.1-2.3-3.5-3c-1.6-0.8-3.3-1.2-5.1-1.1c-1.8,0-3.5,0.3-5.1,1.1c-1.4,0.7-2.6,1.7-3.5,3
	c-0.9,1.3-1.6,2.7-2,4.2C420.9,40.2,420.9,43.6,421.8,46.7z"/>
<path class="st8" d="M464.8,27c1.2,0,2.4,0.1,3.5,0.5c1,0.3,2,0.8,2.9,1.4c0.8,0.6,1.5,1.5,2,2.4c0.5,1.1,0.8,2.3,0.7,3.5
	c0,1.8-0.5,3.5-1.5,5c-1.1,1.4-2.7,2.4-4.4,2.7v0.1c0.9,0.1,1.7,0.4,2.4,0.8c0.6,0.4,1.2,0.9,1.6,1.5c0.4,0.6,0.7,1.3,0.9,2
	c0.2,0.8,0.3,1.7,0.4,2.5c0,0.5,0,1.1,0.1,1.8s0.1,1.5,0.2,2.2c0.1,0.7,0.2,1.4,0.4,2.1c0.1,0.6,0.4,1.1,0.7,1.5h-3.1
	c-0.2-0.3-0.3-0.6-0.4-1c-0.1-0.4-0.2-0.8-0.2-1.3c0-0.4-0.1-0.9-0.1-1.3s-0.1-0.8-0.1-1.1c0-1.1-0.1-2.1-0.3-3.2
	c-0.1-1-0.4-1.9-0.8-2.8c-0.4-0.8-1-1.5-1.8-2c-1-0.5-2.1-0.8-3.2-0.7h-10.8V57H451V27H464.8z M464.6,41.2c0.8,0,1.7-0.1,2.5-0.4
	c0.8-0.2,1.5-0.6,2.1-1.2c0.6-0.5,1.1-1.1,1.4-1.8c0.4-0.8,0.5-1.6,0.5-2.5c0.1-1.6-0.5-3.2-1.6-4.4c-1.3-1.2-3.1-1.7-4.9-1.6h-10.7
	v11.8L464.6,41.2z"/>
<path class="st8" d="M482.1,27v30h-2.9V27H482.1z"/>
<path class="st8" d="M500.3,27l11.8,30H509l-3.7-9.3h-13.6l-3.6,9.3h-3l12-30H500.3z M504.4,45.2l-5.8-15.4l-6,15.4H504.4z"/>
<path class="st8" d="M518,27l17.5,25.4h0.1V27h2.8v30h-3.2l-17.5-25.4h-0.1V57h-2.9V27H518z"/>
<path class="st8" d="M162.3,67.5c1.1,0,2.2,0.1,3.2,0.5c0.9,0.3,1.8,0.8,2.5,1.5c0.7,0.7,1.2,1.5,1.6,2.4c0.7,2.1,0.7,4.3,0,6.4
	c-0.3,0.9-0.9,1.7-1.6,2.4c-0.7,0.7-1.6,1.2-2.5,1.5c-1,0.3-2.1,0.5-3.2,0.5h-9.2V94h-2.5V67.5H162.3z M161.7,80.5
	c1.5,0.1,3.1-0.4,4.3-1.3c1.1-1,1.8-2.5,1.6-4.1c0.1-1.5-0.5-3-1.6-4.1c-1.2-0.9-2.7-1.4-4.3-1.3h-8.7v10.8H161.7z"/>
<path class="st8" d="M173.6,75.5c0.5-1.6,1.3-3.1,2.3-4.4c1.1-1.3,2.4-2.3,3.9-3c1.7-0.8,3.6-1.2,5.5-1.1c1.9,0,3.7,0.3,5.4,1.1
	c1.5,0.7,2.8,1.7,3.9,3c1.1,1.3,1.8,2.8,2.3,4.4c1,3.4,1,7,0,10.4c-0.5,1.6-1.3,3.1-2.3,4.4c-1.1,1.3-2.4,2.3-3.9,3
	c-1.7,0.8-3.6,1.2-5.4,1.1c-1.9,0-3.8-0.3-5.5-1.1c-1.5-0.7-2.8-1.7-3.9-3c-1-1.3-1.8-2.7-2.3-4.3C172.6,82.6,172.6,79,173.6,75.5
	L173.6,75.5z M175.9,85c0.4,1.3,1,2.6,1.8,3.7c0.8,1.1,1.9,2,3.1,2.6c1.4,0.7,3,1,4.5,1c1.6,0,3.1-0.3,4.5-1
	c1.2-0.6,2.3-1.5,3.1-2.6c0.8-1.1,1.4-2.4,1.8-3.7c0.8-2.8,0.8-5.7,0-8.5c-0.4-1.3-1-2.6-1.8-3.7c-0.8-1.1-1.9-2-3.1-2.6
	c-1.4-0.7-2.9-1-4.5-1c-1.6,0-3.1,0.3-4.5,1c-1.2,0.6-2.3,1.5-3.1,2.6c-0.8,1.1-1.4,2.4-1.8,3.7C175.1,79.3,175.1,82.2,175.9,85
	L175.9,85z"/>
<path class="st8" d="M204.3,67.5v16.3c0,1.3,0.1,2.6,0.5,3.9c0.3,1,0.8,1.9,1.5,2.6c0.7,0.7,1.5,1.2,2.4,1.5c2.1,0.6,4.4,0.6,6.6,0
	c0.9-0.3,1.8-0.8,2.4-1.5c0.7-0.7,1.2-1.6,1.5-2.6c0.4-1.3,0.6-2.6,0.5-3.9V67.5h2.5v16.9c0,1.3-0.2,2.6-0.6,3.9
	c-0.4,1.2-1,2.3-1.8,3.2c-0.9,1-2,1.7-3.2,2.2c-1.5,0.6-3.1,0.8-4.7,0.8c-1.6,0-3.2-0.2-4.7-0.8c-2.4-0.9-4.3-2.9-5-5.4
	c-0.4-1.3-0.6-2.6-0.6-3.9V67.5H204.3z"/>
<path class="st8" d="M239.8,67.5c1,0,2.1,0.1,3.1,0.4c0.9,0.2,1.8,0.7,2.6,1.2c0.7,0.6,1.3,1.3,1.7,2.2c0.5,1,0.7,2,0.6,3.1
	c0,1.6-0.4,3.1-1.3,4.4c-0.9,1.3-2.3,2.1-3.9,2.4v0.1c0.8,0.1,1.5,0.3,2.1,0.7c0.6,0.3,1,0.8,1.4,1.3c0.4,0.5,0.6,1.2,0.8,1.8
	c0.2,0.7,0.3,1.5,0.3,2.2c0,0.4,0.1,1,0.1,1.6s0.1,1.3,0.1,1.9c0.1,0.6,0.2,1.2,0.4,1.8c0.1,0.5,0.3,1,0.6,1.3h-2.8
	c-0.2-0.3-0.3-0.6-0.4-0.9c-0.1-0.4-0.2-0.7-0.2-1.1l-0.1-1.1c0-0.4,0-0.7-0.1-1c0-0.9-0.1-1.9-0.2-2.8c-0.1-0.9-0.3-1.7-0.7-2.5
	c-0.3-0.7-0.9-1.3-1.6-1.8c-0.8-0.5-1.8-0.7-2.8-0.6h-9.6V94h-2.5V67.5H239.8z M239.6,80.1c0.7,0,1.5-0.1,2.2-0.3
	c0.7-0.2,1.3-0.6,1.8-1c0.5-0.4,0.9-1,1.2-1.6c0.3-0.7,0.5-1.4,0.5-2.2c0.1-1.4-0.4-2.8-1.4-3.8c-1.2-1-2.7-1.5-4.3-1.4h-9.4v10.4
	L239.6,80.1z"/>
<path class="st8" d="M265.9,67.5v24.3h14.8V94h-17.3V67.5H265.9z"/>
<path class="st8" d="M301.9,67.5v2.1h-15.7v9.6h14.7v2.1h-14.7v10.4h15.9V94h-18.4V67.5H301.9z"/>
<path class="st8" d="M327.8,67.5c1.1,0,2.1,0.1,3.2,0.3c1,0.2,1.9,0.5,2.7,1.1c0.8,0.5,1.4,1.2,1.9,2c0.5,1,0.7,2,0.7,3.1
	c0,0.7-0.1,1.4-0.3,2c-0.2,0.6-0.5,1.2-0.9,1.8c-0.4,0.5-0.9,1-1.5,1.3c-0.6,0.4-1.2,0.6-1.9,0.8V80c1.6,0.2,3,0.9,4.1,2.1
	c1,1.2,1.6,2.8,1.5,4.3c0,0.5,0,1-0.1,1.4c-0.1,0.6-0.2,1.1-0.5,1.6c-0.3,0.6-0.6,1.2-1,1.7c-0.5,0.6-1,1.1-1.7,1.4
	c-0.8,0.5-1.7,0.8-2.6,1c-1.2,0.3-2.4,0.4-3.7,0.4h-11.1V67.5H327.8z M327.8,79.1c0.9,0,1.8-0.1,2.6-0.4c0.7-0.2,1.3-0.5,1.9-1
	c0.5-0.4,0.9-0.9,1.1-1.4c0.3-0.5,0.4-1.1,0.4-1.7c0-3.3-2-5-6-5h-8.7V79L327.8,79.1z M327.8,91.8c0.9,0,1.8-0.1,2.7-0.2
	c0.8-0.1,1.5-0.4,2.2-0.9c0.6-0.4,1.2-1,1.5-1.7c0.4-0.8,0.6-1.7,0.5-2.6c0.1-1.5-0.6-2.9-1.8-3.8c-1.5-0.9-3.3-1.4-5.2-1.3h-8.7
	v10.5L327.8,91.8z"/>
<path class="st8" d="M344.4,67.5V94h-2.5V67.5H344.4z"/>
<path class="st8" d="M368.5,67.5v2.1h-15.7v9.6h14.7v2.1h-14.7v10.4h15.9V94h-18.4V67.5H368.5z"/>
<path class="st8" d="M375.3,67.5l15.4,22.3h0.1V67.5h2.5V94h-2.8l-15.4-22.4H375V94h-2.5V67.5H375.3z"/>
<path class="st8" d="M409.4,67.5l8.6,23.6h0.1l8.5-23.6h2.7L419.5,94h-2.9l-9.8-26.4L409.4,67.5z"/>
<path class="st8" d="M434.6,67.5V94h-2.5V67.5H434.6z"/>
<path class="st8" d="M458.8,67.5v2.1H443v9.6h14.7v2.1H443v10.4h16V94h-18.5V67.5H458.8z"/>
<path class="st8" d="M465.5,67.5V94H463V67.5H465.5z"/>
<path class="st8" d="M474,67.5v24.3h14.8V94h-17.4V67.5H474z"/>
<path class="st8" d="M494.2,67.5v24.3H509V94h-17.3V67.5H494.2z"/>
<path class="st8" d="M514.6,67.5V94h-2.5V67.5H514.6z"/>
<path class="st8" d="M532.6,67.5c1,0,2.1,0.1,3.1,0.4c0.9,0.2,1.8,0.7,2.5,1.2c0.8,0.6,1.4,1.3,1.8,2.2c0.5,1,0.7,2,0.7,3.1
	c0,1.6-0.4,3.1-1.3,4.4c-0.9,1.3-2.3,2.1-3.8,2.4v0.1c0.8,0.1,1.5,0.3,2.1,0.7c0.5,0.3,1,0.8,1.3,1.3c0.4,0.5,0.6,1.1,0.8,1.8
	c0.2,0.7,0.3,1.5,0.3,2.2c0,0.4,0,1,0.1,1.6s0.1,1.3,0.2,1.9c0.1,0.6,0.2,1.2,0.3,1.8c0.1,0.5,0.3,1,0.7,1.3h-2.8
	c-0.2-0.3-0.3-0.6-0.4-0.9c-0.1-0.4-0.1-0.7-0.2-1.1c0-0.4-0.1-0.8-0.1-1.1s0-0.7-0.1-1c0-0.9-0.1-1.9-0.2-2.8
	c-0.1-0.9-0.3-1.7-0.7-2.5c-0.4-0.7-0.9-1.3-1.5-1.8c-0.8-0.5-1.8-0.7-2.8-0.6H523V94h-2.5V67.5H532.6z M532.4,80.1
	c0.7,0,1.5-0.1,2.2-0.3c0.7-0.2,1.3-0.6,1.8-1c0.5-0.4,0.9-1,1.2-1.6c0.3-0.7,0.5-1.4,0.5-2.2c0.1-1.4-0.4-2.8-1.4-3.8
	c-1.2-1-2.7-1.5-4.3-1.4H523v10.4L532.4,80.1z"/>
<rect x="397.3" y="84.1" class="st8" width="12.1" height="2.1"/>
</svg>
