<svg enable-background="new 0 0 419.3 194.3" viewBox="0 0 419.3 194.3" xmlns="http://www.w3.org/2000/svg"><g fill="#281e78"><path d="m172.5 0h11.4v10.1h-11.4zm.4 17.2h10.6v46.3h-10.6z"/><path d="m198.6 2.1h24.2c14.4 0 23.3 8.2 23.3 20.5v.2c0 13.8-11.1 21-24.6 21h-12.2v19.7h-10.8v-61.4zm23.4 31.9c8.2 0 13.2-4.6 13.2-11v-.2c0-7.2-5.2-11-13.2-11h-12.5v22.2z"/><path d="m257.2 2.1h45.5v9.7h-34.7v16h30.8v9.7h-30.8v16.5h35.2v9.7h-46z"/><path d="m316 2.1h24.2c14.4 0 23.3 8.2 23.3 20.5v.2c0 13.8-11.1 21-24.6 21h-12.2v19.7h-10.7zm23.3 31.9c8.2 0 13.2-4.6 13.2-11v-.2c0-7.2-5.2-11-13.2-11h-12.5v22.2z"/><path d="m370.5 54.6 6.5-7.7c5.9 5.1 11.8 8 19.4 8 6.7 0 10.9-3.2 10.9-7.7v-.2c0-4.4-2.5-6.8-13.9-9.4-13.1-3.2-20.4-7-20.4-18.3v-.3c0-10.5 8.8-17.8 21-17.8 8.9 0 16.1 2.7 22.3 7.7l-5.8 8.2c-5.5-4.1-11.1-6.3-16.7-6.3-6.3 0-10 3.2-10 7.3v.2c0 4.7 2.8 6.8 14.7 9.7 13 3.2 19.7 7.8 19.7 18v.2c0 11.5-9 18.3-21.9 18.3-9.6-.1-18.4-3.3-25.8-9.9z"/><path d="m8.9 88h-8.9v-6h24.3v6h-8.9v23.4h-6.5z"/><path d="m28.6 80.8h6.4v11.3c1.5-1.9 3.4-3.6 6.6-3.6 4.8 0 7.6 3.2 7.6 8.4v14.6h-6.4v-12.6c0-3-1.4-4.6-3.9-4.6-2.4 0-4 1.6-4 4.6v12.5h-6.4v-30.6z"/><path d="m53.7 100.3c0-6.5 4.6-11.8 11.1-11.8 7.5 0 11 5.8 11 12.2 0 .5 0 1.1-.1 1.7h-15.7c.6 2.9 2.6 4.4 5.5 4.4 2.1 0 3.7-.7 5.5-2.3l3.7 3.2c-2.1 2.6-5.1 4.2-9.2 4.2-6.8 0-11.8-4.7-11.8-11.6zm15.8-1.9c-.4-2.9-2.1-4.8-4.7-4.8s-4.4 1.9-4.9 4.8z"/><path d="m93.8 82h6.5v11.6h11.9v-11.6h6.5v29.4h-6.5v-11.8h-11.9v11.8h-6.5z"/><path d="m123.9 100.3c0-6.5 4.6-11.8 11.1-11.8 7.5 0 11 5.8 11 12.2 0 .5 0 1.1-.1 1.7h-15.7c.6 2.9 2.6 4.4 5.5 4.4 2.1 0 3.7-.7 5.5-2.3l3.7 3.2c-2.1 2.6-5.1 4.2-9.2 4.2-6.8 0-11.8-4.7-11.8-11.6zm15.9-1.9c-.4-2.9-2.1-4.8-4.7-4.8s-4.4 1.9-4.9 4.8z"/><path d="m149.4 104.9c0-5 3.7-7.3 9.1-7.3 2.3 0 3.9.4 5.5.9v-.4c0-2.6-1.6-4.1-4.8-4.1-2.4 0-4.2.5-6.2 1.2l-1.6-4.9c2.5-1.1 4.9-1.8 8.7-1.8 3.5 0 6 .9 7.6 2.5 1.7 1.7 2.4 4.2 2.4 7.2v13h-6.2v-2.2c-1.6 1.7-3.7 2.9-6.8 2.9-4.3-.1-7.7-2.5-7.7-7zm14.6-1.4v-1.1c-1.1-.5-2.5-.8-4.1-.8-2.7 0-4.4 1.1-4.4 3.1v.1c0 1.7 1.4 2.7 3.5 2.7 3-.1 5-1.7 5-4z"/><path d="m175.8 80.8h6.4v30.6h-6.4z"/><path d="m189.3 105v-10.6h-2.7v-5.5h2.7v-5.7h6.4v5.7h5.3v5.5h-5.3v9.6c0 1.5.6 2.2 2.1 2.2 1.2 0 2.2-.3 3.1-.8v5.1c-1.3.8-2.9 1.3-5 1.3-4 0-6.6-1.6-6.6-6.8z"/><path d="m205.6 80.8h6.4v11.3c1.5-1.9 3.4-3.6 6.6-3.6 4.8 0 7.6 3.2 7.6 8.4v14.6h-6.4v-12.6c0-3-1.4-4.6-3.9-4.6s-4 1.6-4 4.6v12.5h-6.4v-30.6z"/><path d="m232.8 105v-10.6h-2.7v-5.5h2.7v-5.7h6.4v5.7h5.3v5.5h-5.3v9.6c0 1.5.6 2.2 2.1 2.2 1.2 0 2.2-.3 3.1-.8v5.1c-1.3.8-2.9 1.3-5 1.3-3.9 0-6.6-1.6-6.6-6.8z"/><path d="m248.1 100.3c0-6.5 4.6-11.8 11.1-11.8 7.5 0 11 5.8 11 12.2 0 .5 0 1.1-.1 1.7h-15.7c.6 2.9 2.6 4.4 5.5 4.4 2.1 0 3.7-.7 5.5-2.3l3.7 3.2c-2.1 2.6-5.1 4.2-9.2 4.2-6.8 0-11.8-4.7-11.8-11.6zm15.9-1.9c-.4-2.9-2.1-4.8-4.7-4.8s-4.4 1.9-4.9 4.8z"/><path d="m273.8 100.3c0-6.5 4.9-11.8 11.8-11.8 4.2 0 6.9 1.4 9 3.8l-3.9 4.2c-1.4-1.5-2.9-2.5-5.1-2.5-3.2 0-5.5 2.8-5.5 6.1v.1c0 3.4 2.2 6.2 5.7 6.2 2.1 0 3.6-.9 5.2-2.4l3.7 3.8c-2.2 2.4-4.7 4.1-9.2 4.1-6.7 0-11.7-5.2-11.7-11.6z"/><path d="m298.9 80.8h6.4v11.3c1.5-1.9 3.4-3.6 6.6-3.6 4.8 0 7.6 3.2 7.6 8.4v14.6h-6.4v-12.6c0-3-1.4-4.6-3.9-4.6s-4 1.6-4 4.6v12.5h-6.4v-30.6z"/><path d="m338.3 82h6.5v11.6h11.9v-11.6h6.5v29.4h-6.5v-11.8h-11.9v11.8h-6.5z"/><path d="m369.4 103.5v-14.6h6.4v12.5c0 3 1.4 4.6 3.9 4.6 2.4 0 4-1.6 4-4.6v-12.5h6.4v22.5h-6.4v-3.2c-1.5 1.9-3.4 3.6-6.6 3.6-4.9 0-7.7-3.2-7.7-8.3z"/><path d="m402.1 108.5v2.9h-6.4v-30.6h6.4v11.4c1.6-2.1 3.7-3.7 7-3.7 5.2 0 10.2 4.1 10.2 11.6v.1c0 7.5-4.9 11.6-10.2 11.6-3.4 0-5.5-1.5-7-3.3zm10.8-8.3c0-3.8-2.5-6.3-5.5-6.3s-5.5 2.5-5.5 6.2v.1c0 3.7 2.5 6.2 5.5 6.2s5.5-2.4 5.5-6.2z"/><path d="m278.7 147.9h3.6v20.8h-3.6z"/><path d="m290.2 168.7h-3.6v-15.6h3.6v2.4c.3-.4.5-.7.8-1.1.3-.3.7-.6 1.1-.9s.8-.5 1.3-.6c.5-.2 1-.2 1.6-.2 1.8 0 3.1.5 4.1 1.6s1.4 2.5 1.4 4.4v9.9h-3.5v-8.9c0-1.2-.3-2.2-.9-2.8-.6-.7-1.4-1-2.4-1s-1.9.3-2.5 1-1 1.6-1 2.8z"/><path d="m315.2 166.3c-.3.6-.7 1.1-1.2 1.5s-1.1.7-1.9.9c-.7.2-1.5.3-2.3.3-1.1 0-2.3-.2-3.4-.6-1.2-.4-2.2-1-3.2-1.7l1.6-2.4c.8.6 1.7 1.1 2.6 1.4s1.7.5 2.5.5 1.4-.2 1.8-.5.6-.7.6-1.2v-.1c0-.3-.1-.6-.3-.8s-.4-.4-.8-.6c-.3-.2-.7-.3-1.1-.4s-.9-.3-1.3-.4c-.6-.2-1.1-.4-1.7-.6s-1.1-.5-1.6-.8-.8-.8-1.1-1.3-.4-1.1-.4-1.9v-.1c0-.7.1-1.4.4-2s.7-1.1 1.2-1.5 1.1-.7 1.8-.9 1.4-.3 2.2-.3c1 0 2 .2 3 .5s1.9.7 2.8 1.3l-1.4 2.5c-.8-.5-1.5-.8-2.3-1.1s-1.5-.4-2.1-.4c-.7 0-1.2.1-1.6.4s-.6.7-.6 1.1v.1c0 .3.1.5.3.7s.5.4.8.6.7.3 1.1.5c.4.1.9.3 1.3.4.6.2 1.1.4 1.7.6s1.1.5 1.6.9c.5.3.8.8 1.1 1.3s.4 1.1.4 1.8v.1c-.1.8-.2 1.5-.5 2.2"/><path d="m319 149.5h3.6v3.6h4.2v3h-4.2v7.7c0 .7.2 1.2.5 1.5s.8.5 1.4.5c.8 0 1.5-.2 2.2-.5v2.9c-.5.3-.9.5-1.4.6s-1.1.2-1.8.2-1.3-.1-1.8-.2c-.6-.2-1-.4-1.4-.8s-.7-.8-.9-1.4-.3-1.3-.3-2.2v-14.9z"/><path d="m331.1 168.7h3.6v-15.6h-3.6zm-.1-18h3.9v-3.1h-3.9z"/><path d="m338.9 149.5h3.6v3.6h4.2v3h-4.2v7.7c0 .7.2 1.2.5 1.5s.8.5 1.4.5c.8 0 1.5-.2 2.2-.5v2.9c-.5.3-.9.5-1.4.6s-1.1.2-1.8.2-1.3-.1-1.8-.2c-.6-.2-1-.4-1.4-.8s-.7-.8-.9-1.4-.3-1.3-.3-2.2v-14.9z"/><path d="m360.5 153.1h3.6v15.6h-3.6v-2.5c-.5.8-1.2 1.4-1.9 2-.8.5-1.8.8-2.9.8-1.8 0-3.1-.5-4.1-1.6s-1.4-2.5-1.4-4.4v-9.9h3.6v8.9c0 1.2.3 2.2.9 2.8.6.7 1.4 1 2.4 1s1.9-.3 2.5-1 1-1.6 1-2.8v-8.9z"/><path d="m368.1 149.5h3.6v3.6h4.2v3h-4.2v7.7c0 .7.2 1.2.5 1.5s.8.5 1.4.5c.8 0 1.5-.2 2.2-.5v2.9c-.5.3-.9.5-1.4.6s-1.1.2-1.8.2-1.3-.1-1.8-.2c-.6-.2-1-.4-1.4-.8s-.7-.8-.9-1.4-.3-1.3-.3-2.2v-14.9z"/><path d="m286.4 179.3c-.2-.4-.4-.7-.6-1-.3-.3-.6-.5-.9-.6s-.7-.2-1.1-.2-.7.1-1.1.2c-.3.1-.6.3-.9.6s-.5.6-.6 1-.2.8-.2 1.3.1.9.2 1.3c.2.4.4.7.6 1 .3.3.6.5.9.6s.7.2 1.1.2.7-.1 1.1-.2.7-.4.9-.6c.3-.3.5-.6.6-1 .2-.4.2-.8.2-1.3.1-.5 0-1-.2-1.3m.2 6v-1.6c-.3.5-.8.9-1.4 1.3-.5.3-1.2.5-2 .5-.6 0-1.2-.1-1.7-.3-.6-.2-1-.5-1.5-1-.4-.4-.8-.9-1-1.6-.3-.6-.4-1.3-.4-2.1s.1-1.5.4-2.1.6-1.1 1-1.6.9-.7 1.5-1c.6-.2 1.1-.3 1.7-.3.8 0 1.5.2 2 .5s1 .7 1.3 1.2v-4.3h2.2v12.4z"/><path d="m297.8 175.8h2.2v9.5h-2.2v-1.5c-.3.5-.7.9-1.2 1.2s-1.1.5-1.8.5c-1.1 0-1.9-.3-2.5-1s-.9-1.5-.9-2.7v-6h2.2v5.4c0 .7.2 1.3.5 1.7.4.4.8.6 1.5.6.6 0 1.1-.2 1.5-.6s.6-1 .6-1.7v-5.4z"/><path d="m334.5 185.1c-.1-.6-.2-1.1-.4-1.6s-.5-.9-.8-1.3-.7-.7-1.2-.9-1-.3-1.6-.3c-1.1 0-2 .4-2.7 1.1-.7.8-1.2 1.7-1.3 3zm-6.4 5.3c.8.7 1.8 1 3 1 .9 0 1.7-.2 2.3-.5.7-.3 1.3-.8 1.9-1.4l2.1 1.9c-.7.9-1.6 1.6-2.7 2.1-1 .5-2.3.8-3.7.8-1.1 0-2.2-.2-3.2-.6s-1.8-.9-2.5-1.7c-.7-.7-1.3-1.6-1.7-2.6s-.6-2.1-.6-3.3c0-1.1.2-2.2.6-3.2s.9-1.9 1.6-2.6 1.5-1.3 2.4-1.8c.9-.4 2-.7 3.1-.7 1.2 0 2.3.2 3.3.7.9.5 1.7 1.1 2.3 1.8.6.8 1.1 1.7 1.4 2.7s.5 2.1.5 3.2v.5.5h-11.5c.1 1.5.6 2.5 1.4 3.2"/><path d="m320.3 188.3c-.9.8-1.8 1.5-2.7 2s-2 .7-3.3.7c-1 0-1.9-.2-2.7-.6s-1.6-.9-2.2-1.6-1.1-1.5-1.4-2.4-.5-1.9-.5-2.9.2-2 .5-2.9.8-1.7 1.4-2.3c.6-.7 1.3-1.2 2.2-1.6.8-.4 1.8-.6 2.7-.6 1.2 0 2.2.2 3.2.7.9.5 1.8 1.1 2.6 1.9l2.3-2.7c-.5-.5-1-.9-1.6-1.3s-1.2-.7-1.8-1c-.7-.3-1.4-.5-2.1-.7-.8-.2-1.6-.2-2.6-.2-1.6 0-3 .3-4.3.8-1.3.6-2.4 1.3-3.4 2.3-.9 1-1.7 2.1-2.2 3.4s-.8 2.7-.8 4.2.3 2.9.8 4.2 1.3 2.4 2.2 3.4 2 1.7 3.3 2.3 2.7.8 4.2.8c1 0 1.8-.1 2.6-.3s1.5-.4 2.2-.7 1.3-.7 1.9-1.2c.2-.1.4-.3.5-.5-.2-.4-.4-.7-.6-1.1 0-.5-.2-1.3-.4-2.1"/><path d="m344.9 194h-3.6v-15.6h3.6v3.5c.5-1.2 1.2-2.1 2.1-2.8s2-1 3.4-1v3.8h-.2c-.8 0-1.5.1-2.2.4s-1.2.6-1.7 1.2c-.5.5-.8 1.2-1.1 1.9-.3.8-.4 1.7-.4 2.7v5.9z"/><path d="m364.9 178.4h3.7l-6.4 15.7h-3.2l-6.4-15.7h3.8l4.2 11.4z"/><path d="m380.9 185.1c-.1-.6-.2-1.1-.4-1.6s-.5-.9-.8-1.3-.7-.7-1.2-.9-1-.3-1.6-.3c-1.1 0-2 .4-2.7 1.1-.7.8-1.2 1.7-1.3 3zm-6.4 5.3c.8.7 1.8 1 3 1 .9 0 1.7-.2 2.3-.5.7-.3 1.3-.8 1.9-1.4l2.1 1.9c-.7.9-1.6 1.6-2.7 2.1-1 .5-2.3.8-3.7.8-1.1 0-2.2-.2-3.2-.6s-1.8-.9-2.5-1.7c-.7-.7-1.3-1.6-1.7-2.6s-.6-2.1-.6-3.3c0-1.1.2-2.2.6-3.2s.9-1.9 1.6-2.6 1.5-1.3 2.4-1.8c.9-.4 2-.7 3.1-.7 1.2 0 2.3.2 3.3.7.9.5 1.7 1.1 2.3 1.8.6.8 1.1 1.7 1.4 2.7s.5 2.1.5 3.2v.5.5h-11.5c0 1.5.5 2.5 1.4 3.2"/><path d="m397.7 187.3c-.5-.2-1-.3-1.6-.4s-1.3-.2-2-.2c-1.1 0-2 .2-2.6.7-.6.4-.9 1.1-.9 1.9v.1c0 .7.3 1.3.9 1.7s1.3.6 2.1.6c.6 0 1.1-.1 1.6-.2.5-.2.9-.4 1.3-.7s.7-.6.9-1 .3-.9.3-1.3zm-.1 6.7v-1.9c-.5.6-1.2 1.2-2 1.6s-1.8.7-3 .7c-.7 0-1.5-.1-2.1-.3-.7-.2-1.3-.5-1.8-.9s-.9-.9-1.2-1.5-.5-1.3-.5-2.1v-.1c0-.8.2-1.6.5-2.2s.8-1.2 1.3-1.6c.6-.4 1.2-.7 2-.9s1.6-.3 2.5-.3 1.8.1 2.4.2c.7.1 1.3.3 1.9.5v-.4c0-1.1-.3-1.9-1-2.5s-1.6-.9-2.9-.9c-.9 0-1.7.1-2.4.3s-1.4.4-2.1.7l-1-2.9c.9-.4 1.8-.7 2.7-.9s2-.4 3.3-.4c2.3 0 4.1.6 5.2 1.7 1.1 1.2 1.7 2.8 1.7 4.9v9.3h-3.5z"/><path d="m415 178.4h3.6v15.6h-3.6v-2.5c-.5.8-1.2 1.4-1.9 2-.8.5-1.8.8-2.9.8-1.8 0-3.1-.5-4.1-1.6s-1.4-2.5-1.4-4.4v-9.9h3.6v8.9c0 1.2.3 2.2.9 2.8.6.7 1.4 1 2.4 1s1.9-.3 2.5-1 1-1.6 1-2.8v-8.9z"/></g><path d="m271.4 168.1c0 13.7-11.1 24.8-24.8 24.8s-24.8-11.1-24.8-24.8 11.1-24.8 24.8-24.8 24.8 11.1 24.8 24.8" fill="#fa4616"/><path d="m252.3 181.1c-.6 0-1.1-.4-1.1-1v-6.8c0-.6.5-1 1.1-1h5.7v-4.6c0-.6.5-1 1.1-1h1.3l-3.1-7.9c-1.5-3.8-6.1-6.2-9.6-6.2-.6 0-1.1-.4-1.1-1s.5-1 1.1-1c4.3 0 9.8 2.8 11.6 7.5l3.6 9.2c.1.3.1.7-.1.9-.2.3-.5.4-.9.4h-1.7v4.6c0 .6-.5 1-1.1 1h-5.7v5.8c0 .7-.5 1.1-1.1 1.1" fill="#fff"/><path d="m253.4 162.4c-.4-3.1-2.2-5.5-5.2-6.7-2-.9-3.9-.9-4.2-.9-.4 0-3.1-.2-6 .6-4.2 1.1-6.6 3.8-7 7.6-.1.3-.2 1.6.3 3.3.5 1.6 1.9 3.9 5.3 5.4 2.5 1.1 4.1 3.2 4.6 6.1.5 2.3.1 4.4.1 4.4s-.8 4.7-1.7 8c0 0-.6 2.1-.6 2.1-.2.6.2 1.1.7 1.3h.3c.5 0 .9-.3 1-.8 0 0 .6-2.1.6-2.1.9-3.4 1.8-8 1.8-8.3 0-.2.4-2.5-.1-5.1-.7-3.7-2.7-6.3-5.9-7.7-5.1-2.2-4.5-6.2-4.4-6.4s0 0 0-.1c.3-3 2.1-4.9 5.4-5.8 2.7-.7 5.3-.5 5.3-.5h.1c.3 0 6.6.1 7.4 5.9.2 1.3-.1 2.4-.8 3.3-2 2.3-6.5 2.5-6.6 2.5-.6 0-1 .5-1 1.1s.5 1 1 1c.2 0 5.5-.2 8.1-3.3 1.3-1.3 1.8-3 1.5-4.9" fill="#fff"/><path d="m248.7 184h.8v3.8h-.8z" fill="#fff"/><path d="m253.1 185c-.1-.1-.2-.2-.3-.2-.1-.1-.3-.1-.4-.1-.2 0-.3 0-.4.1s-.3.1-.3.3c-.1.1-.2.2-.2.4-.1.2-.1.3-.1.5s0 .3.1.5c.1.1.1.3.2.4l.3.3c.1.1.3.1.4.1.2 0 .3 0 .5-.1l.3-.3.7.5c-.2.2-.4.4-.6.5s-.5.2-.8.2-.6 0-.8-.1-.5-.2-.6-.4c-.2-.2-.3-.4-.4-.6s-.2-.5-.2-.8.1-.6.2-.8.2-.5.4-.6c.2-.2.4-.3.6-.4.3-.1.5-.1.8-.1h.3c.1 0 .2 0 .3.1.1 0 .2.1.3.2l.3.3z" fill="#fff"/><path d="m257.7 184-.9 2.5-.9-2.5h-1.2v3.8h.8v-2.9l1 2.9h.6l1-2.9v2.9h.8v-3.8z" fill="#fff"/><path d="m277.4 134.3h141.3v1.2h-141.3z" fill="#fa4616"/></svg>